<svg width="80" height="80" viewBox="0 0 80 80" fill="none" xmlns="http://www.w3.org/2000/svg">
<path d="M43.752 7.84912C44.7128 7.74617 45.8264 7.9467 46.752 8.20947C48.8461 8.80391 50.5468 10.077 51.5566 11.894C52.606 13.7568 52.8074 15.9346 52.1152 17.937C51.2363 20.4063 49.3521 21.6473 46.998 22.7886L47.0244 29.9907C48.7067 30.4687 50.3436 31.0105 51.8711 31.8354C55.3818 33.7316 57.7832 36.9288 58.79 40.5669C59.8543 44.382 59.2491 48.436 57.1074 51.8364C55.143 54.9186 52.0106 57.1949 48.2607 58.0669C43.3623 59.2073 39.2082 57.9724 34.998 55.6401C33.137 57.4942 31.2981 59.3693 29.4834 61.2642C30.2948 63.0474 30.5634 64.9181 30.0254 66.813C29.4995 68.6655 28.1063 70.2525 26.3242 71.1909C24.3273 72.2439 22.0525 72.4359 19.8633 71.8521C17.6907 71.2727 15.8646 70.0186 14.8027 68.1343C13.7577 66.2818 13.6692 64.111 14.3467 62.1333C15.1176 59.8854 16.688 58.5005 18.8955 57.4731C21.2714 56.6072 23.2354 56.892 25.5547 57.6704C27.4857 55.7771 29.304 53.7884 31.2549 51.9116C29.1108 47.9938 28.4165 44.6565 29.5312 40.3394C27.1038 39.2835 24.7629 38.0543 22.334 36.9966C21.0361 38.2554 19.4499 39.1186 17.5869 39.4106C15.3652 39.7591 13.0225 39.1944 11.1963 37.979C9.38694 36.7577 8.19662 34.8964 7.9043 32.8325C7.60427 30.8311 8.16928 28.625 9.54492 27.0454C10.9635 25.4164 13.1658 24.4342 15.3887 24.2173C17.5727 24.0191 19.7516 24.6398 21.4434 25.9419C23.6065 27.63 24.2308 29.7281 24.4932 32.229C26.7955 33.5442 29.4321 34.5586 31.8311 35.7329C34.9521 32.2951 37.2322 31.2104 41.7812 29.9038L41.7852 22.7563C40.9708 22.4527 40.1579 22.0832 39.4482 21.5972C37.6534 20.3601 36.4756 18.4965 36.1846 16.4341C35.9155 14.3822 36.5365 12.3144 37.9111 10.6919C39.4136 8.93583 41.4223 8.13637 43.752 7.84912ZM53.7803 43.4048C53.3174 38.4878 48.6818 34.8418 43.4023 35.2417C38.0753 35.6454 34.1183 40.0121 34.585 44.9722C35.0519 49.9341 39.7645 53.5926 45.0859 53.1265C50.3597 52.6631 54.243 48.3213 53.7803 43.4048Z" fill="white"/>
<path d="M69.0435 31.4638C69.2687 31.4534 69.4873 31.4504 69.7114 31.4806C70.4117 31.5752 71.1018 31.8903 71.4875 32.4632C71.8966 33.071 71.9527 33.8804 72.0087 34.5845C72.2864 38.0692 72.0801 41.6943 72.0791 45.1913C72.0783 48.0472 72.418 51.9199 71.8489 54.6702C71.6698 55.5346 71.0545 55.948 70.3178 56.4157C70.0372 56.4474 69.7435 56.4836 69.4604 56.4685C68.8282 56.4353 68.2292 56.1728 67.8204 55.7232C67.4161 55.2782 67.4277 54.385 67.392 53.8268C67.135 49.8184 67.3523 45.6817 67.3562 41.6611C67.3584 39.3764 67.0213 35.0028 67.5369 32.9639C67.7213 32.2345 68.4269 31.8522 69.0435 31.4638Z" fill="white"/>
<path d="M62.5891 37.0625C63.3479 37.1928 64.0192 37.4585 64.4614 38.0725C65.1433 39.0198 65.1618 48.3006 64.8202 49.6252C64.6333 50.3493 63.9609 50.7023 63.3234 51.0508C62.5933 51.0101 61.6336 50.9498 61.1461 50.3599C60.4206 49.4834 60.4806 39.6197 60.8937 38.3827C61.1336 37.664 61.9267 37.3602 62.5891 37.0625Z" fill="white"/>
</svg>
